<svg 
 xmlns="http://www.w3.org/2000/svg"
 xmlns:xlink="http://www.w3.org/1999/xlink"
 width="198px" height="41px">
<path fill-rule="evenodd"  fill="rgb(210, 255, 33)"
 d="M185.919,3.451 C181.187,3.451 177.338,7.269 177.338,11.962 L173.854,11.962 C173.854,5.365 179.266,-0.003 185.919,-0.003 C192.572,-0.003 197.984,5.365 197.984,11.962 L194.502,11.962 C194.502,7.269 190.651,3.451 185.919,3.451 ZM161.776,11.977 C161.776,5.379 167.188,0.012 173.841,0.012 L173.841,3.466 C169.107,3.466 165.258,7.284 165.258,11.977 C165.258,16.670 169.107,20.488 173.841,20.488 L173.841,23.942 C167.188,23.942 161.776,18.574 161.776,11.977 ZM135.890,8.533 C134.459,8.533 133.478,7.520 133.478,6.223 C133.478,4.885 134.459,3.912 135.890,3.912 C137.197,3.912 138.177,4.885 138.177,6.223 C138.177,7.520 137.197,8.533 135.890,8.533 ZM123.464,30.746 L123.424,30.746 C121.831,32.813 119.133,33.907 115.904,33.907 C111.245,33.907 108.016,31.556 108.016,27.341 C108.016,22.598 111.368,20.531 119.623,20.531 C121.054,20.531 122.443,20.531 123.342,20.571 L123.342,19.113 C123.342,15.464 120.563,14.288 117.293,14.288 C114.637,14.288 112.512,15.140 111.081,15.991 L109.651,13.194 C111.408,12.222 114.065,11.330 117.499,11.330 C119.459,11.330 121.789,11.573 123.629,12.667 C125.386,13.762 126.695,15.586 126.695,19.113 L126.695,29.854 C126.695,31.070 126.695,32.124 126.817,33.259 L123.464,33.259 L123.464,30.746 ZM123.301,23.206 C122.484,23.166 121.095,23.166 119.704,23.166 C114.679,23.166 111.491,24.017 111.491,27.097 C111.491,29.813 113.615,31.070 116.599,31.070 C120.318,31.070 122.362,29.205 123.301,27.381 L123.301,23.206 ZM101.027,33.259 L97.553,33.259 L97.553,15.019 L94.856,15.019 L94.856,11.978 L97.553,11.978 L97.553,9.547 C97.553,7.520 98.004,6.101 99.026,5.209 C99.883,4.399 101.313,4.034 103.153,4.034 C104.256,4.034 105.114,4.156 105.523,4.236 L105.400,6.952 C105.196,6.912 104.379,6.790 103.767,6.790 C101.927,6.790 101.027,7.358 101.027,9.343 L101.027,11.978 L105.645,11.978 L105.645,15.019 L101.027,15.019 L101.027,33.259 ZM88.071,8.533 C86.642,8.533 85.660,7.520 85.660,6.223 C85.660,4.885 86.642,3.912 88.071,3.912 C89.380,3.912 90.360,4.885 90.360,6.223 C90.360,7.520 89.380,8.533 88.071,8.533 ZM76.016,20.855 C76.016,16.680 73.972,14.370 70.252,14.370 C67.432,14.370 65.185,15.991 63.998,17.410 L63.998,33.259 L60.525,33.259 L60.525,15.424 C60.525,14.248 60.525,13.113 60.484,11.978 L63.877,11.978 L63.877,14.288 L63.918,14.288 C65.267,12.789 67.473,11.371 70.825,11.371 C75.852,11.371 79.530,14.451 79.530,20.004 L79.530,33.259 L76.016,33.259 L76.016,20.855 ZM53.169,30.786 C53.169,38.163 47.897,41.001 42.175,41.001 C38.414,41.001 34.859,39.744 32.162,37.433 L34.450,34.880 C36.453,36.623 39.028,37.920 42.420,37.920 C46.589,37.920 49.982,35.974 49.982,30.543 C49.982,30.178 49.982,29.691 50.022,29.408 L49.940,29.408 C48.592,30.867 46.017,32.164 42.543,32.164 C36.535,32.164 31.876,28.070 31.876,21.747 C31.876,15.586 36.657,11.330 42.667,11.330 C46.059,11.330 48.265,12.545 49.818,13.884 L49.859,13.884 L49.859,11.978 L53.211,11.978 C53.169,12.992 53.169,13.843 53.169,15.059 L53.169,30.786 ZM49.778,17.329 C48.429,15.789 46.017,14.329 42.993,14.329 C38.660,14.329 35.513,17.451 35.513,21.788 C35.513,26.125 38.578,29.165 43.074,29.165 C46.425,29.165 48.510,27.584 49.778,26.246 L49.778,17.329 ZM24.110,8.533 C22.681,8.533 21.699,7.520 21.699,6.223 C21.699,4.885 22.681,3.912 24.110,3.912 C25.419,3.912 26.399,4.885 26.399,6.223 C26.399,7.520 25.419,8.533 24.110,8.533 ZM10.501,21.342 C14.138,22.233 17.204,23.084 17.204,27.381 C17.204,29.773 16.345,31.151 14.996,32.002 C13.402,32.975 11.277,33.259 8.538,33.259 L0.324,33.259 L0.324,30.219 L8.825,30.219 C12.013,30.219 13.852,30.097 13.852,27.625 C13.852,25.598 12.503,25.233 9.520,24.504 L6.455,23.773 C2.612,22.842 -0.003,21.990 -0.003,17.531 C-0.003,15.708 0.609,14.410 1.591,13.559 C2.981,12.343 4.820,11.978 7.721,11.978 L15.487,11.978 L15.241,15.019 L7.599,15.019 C4.615,15.019 3.307,15.342 3.307,17.451 C3.307,19.518 4.329,19.801 7.518,20.612 L10.501,21.342 ZM25.868,33.259 L22.394,33.259 L22.394,11.978 L25.868,11.978 L25.868,33.259 ZM89.829,33.259 L86.355,33.259 L86.355,11.978 L89.829,11.978 L89.829,33.259 ZM137.647,33.259 L134.174,33.259 L134.174,11.978 L137.647,11.978 L137.647,33.259 ZM173.854,32.468 C178.587,32.468 182.436,28.650 182.436,23.956 L185.919,23.956 C185.919,30.554 180.506,35.921 173.854,35.921 C167.201,35.921 161.790,30.554 161.790,23.956 L165.272,23.956 C165.272,28.650 169.123,32.468 173.854,32.468 ZM197.998,23.942 C197.998,30.539 192.586,35.907 185.934,35.907 L185.934,32.453 C190.667,32.453 194.515,28.634 194.515,23.942 C194.515,19.249 190.667,15.430 185.934,15.430 L185.934,11.977 C192.586,11.977 197.998,17.345 197.998,23.942 Z"/>
</svg>