<?xml version="1.0" standalone="no"?>
<!DOCTYPE svg PUBLIC "-//W3C//DTD SVG 20010904//EN"
 "http://www.w3.org/TR/2001/REC-SVG-20010904/DTD/svg10.dtd">
<svg version="1.0" xmlns="http://www.w3.org/2000/svg"
 width="700.000000pt" height="700.000000pt" viewBox="0 0 700.000000 700.000000"
 preserveAspectRatio="xMidYMid meet">
<metadata>
Created by potrace 1.11, written by Peter Selinger 2001-2013
</metadata>
<g transform="translate(0.000000,700.000000) scale(0.100000,-0.100000)"
fill="#000000" stroke="none">
<path d="M450 6993 c-191 -32 -361 -181 -426 -373 -18 -53 -19 -152 -19 -3120
0 -2968 1 -3067 19 -3120 57 -168 188 -299 356 -356 53 -18 152 -19 3120 -19
2968 0 3067 1 3120 19 168 57 299 188 356 356 18 53 19 152 19 3120 0 2968 -1
3067 -19 3120 -29 85 -72 154 -136 219 -65 65 -122 101 -208 134 l-57 22
-3050 1 c-1677 1 -3061 -1 -3075 -3z m2188 -1135 l-3 -253 -90 -6 c-474 -34
-886 -337 -1064 -784 -102 -255 -113 -579 -29 -830 168 -504 607 -838 1138
-868 l45 -2 3 -244 c1 -135 -1 -248 -5 -252 -5 -4 -61 -3 -125 1 -424 33 -810
211 -1110 513 -264 266 -421 577 -489 967 -17 98 -18 422 -1 520 67 388 231
709 497 975 321 321 720 492 1198 513 l37 2 -2 -252z m2032 229 c681 -116
1238 -622 1405 -1277 32 -126 54 -266 56 -365 l2 -80 -250 -3 -250 -2 -6 87
c-23 358 -209 697 -498 913 -148 110 -362 201 -544 231 -195 32 -452 5 -639
-67 -430 -165 -751 -576 -791 -1014 -3 -36 -8 -84 -11 -107 l-5 -43 -251 0
-251 0 7 98 c24 332 114 604 291 872 267 405 728 697 1195 759 47 6 99 13 115
15 60 8 342 -3 425 -17z m-15 -1748 c355 -52 700 -227 962 -487 476 -473 640
-1163 427 -1800 -46 -135 -146 -330 -229 -447 -312 -437 -791 -703 -1318 -734
l-107 -6 0 253 0 252 53 0 c28 0 90 6 137 14 503 82 901 450 1020 947 32 130
39 349 16 483 -69 407 -323 741 -697 920 -139 67 -323 116 -439 116 -25 0 -55
3 -67 6 l-23 6 0 251 0 250 98 -7 c53 -4 129 -12 167 -17z m-3253 -1827 c20
-289 137 -548 347 -764 187 -194 423 -319 688 -364 129 -22 361 -15 483 15
247 61 450 178 619 356 202 214 321 483 338 768 l6 87 252 0 253 0 -5 -82
c-30 -528 -283 -1003 -698 -1314 -696 -522 -1663 -453 -2279 162 -305 304
-479 693 -511 1142 l-7 92 254 -2 253 -3 7 -93z"/>
</g>
</svg>
